<svg width="100%" height="100%" viewBox="0 0 1080 2400" fill="none" xmlns="http://www.w3.org/2000/svg" preserveAspectRatio="none">
  <g clip-path="url(#clip0_224_130)">
    <rect width="1080" height="2400" fill="#294247"/>
    <rect width="1080" height="2400" fill="url(#paint0_linear_224_130)"/>
    <path d="M703.194 73.7406C752.344 34.3238 557.683 3.72385 454.209 -6.649L1096.07 -87.0386L1123.27 615.472C1092.01 591.268 1136.51 415.865 1007.11 388.646C903.353 366.822 953.795 312.316 745.23 278.604C536.665 244.893 641.756 123.012 703.194 73.7406Z" fill="#FEA133"/>
    <path d="M758.135 61.029C808.842 21.5509 608.016 -9.09654 501.264 -19.4855L1163.46 -100L1133.83 404.248C1199.58 429.198 1142.82 523.5 1123.76 575.744L1121.8 608.991C1115.52 604.272 1117.8 592.059 1123.76 575.744L1133.83 404.248C1114.64 396.964 1085 395.591 1040.93 402.904C936.421 420.245 1016.67 299.975 801.503 266.211C586.332 232.447 694.751 110.377 758.135 61.029Z" fill="#FEAF52"/>
    <path d="M466.591 1198.11C425.297 1280.02 1178.45 1733 1283.56 1745.71L684.503 2922L-755 2129L-57.3904 155.629C-21.537 201.256 -31.7154 552.507 102.503 596.657C210.118 632.056 170.476 743.99 384.828 795.002C599.179 846.014 518.208 1095.72 466.591 1198.11Z" fill="#FEA133"/>
    <path d="M407.162 1218.18C364.93 1299.92 1024.28 1749.25 1145.24 1772.73L1149.6 1773.42C1527.15 1911.71 1749.49 2291.01 1149.6 2417.11C399.74 2574.74 221.547 2294.24 -54.6629 2622C-275.63 2884.21 -72.5873 1937.58 3.89572 1592.43L-38.198 568.773C-89.8675 513.11 -61.1942 350.129 -51.3488 248.964L-54.6629 168.371C-46.5043 178.549 -47.451 208.912 -51.3488 248.964L-38.198 568.773C-17.8403 590.704 14.9895 595.975 66.3567 574.243C167.069 531.633 110.718 778.179 331.715 829.332C552.711 880.485 460.626 1114.71 407.162 1218.18Z" fill="#FEAF52"/>
  </g>
  <defs>
    <linearGradient id="paint0_linear_224_130" x1="1080" y1="1200" x2="0" y2="1200" gradientUnits="userSpaceOnUse">
      <stop stop-color="#FFA63C"/>
      <stop offset="1" stop-color="#DF7A00"/>
    </linearGradient>
    <clipPath id="clip0_224_130">
      <rect width="1080" height="2400" fill="white"/>
    </clipPath>
  </defs>
</svg>
