<svg width="360" height="840" viewBox="0 0 360 840" fill="none" xmlns="http://www.w3.org/2000/svg">
<g clip-path="url(#clip0_224_130)">
<rect width="360" height="840" fill="#294247"/>
<rect width="360" height="840" fill="url(#paint0_linear_224_130)"/>
<path d="M234.662 10.0221C251.374 -5.18333 185.184 -16.9875 150 -20.989L368.251 -52L377.5 219C366.871 209.663 382 142 338 131.5C302.721 123.081 319.873 102.055 248.955 89.0502C178.037 76.0456 213.771 29.0289 234.662 10.0221Z" fill="#FEA133"/>
<path d="M253.343 5.11846C270.585 -10.1106 202.299 -21.9331 166 -25.9408L391.164 -57L381.09 137.519C403.446 147.143 384.146 183.521 377.664 203.675L377 216.5C374.866 214.68 375.64 209.968 377.664 203.675L381.09 137.519C374.563 134.708 364.485 134.179 349.5 137C313.966 143.69 341.254 97.2943 268.09 84.2694C194.925 71.2446 231.791 24.1548 253.343 5.11846Z" fill="#FEAF52"/>
<path d="M432 655C431.449 654.924 430.847 654.809 430.193 654.654L31.7581 578.279L-23.9608 41.6113C-11.7696 59.2121 -15.2306 194.711 30.4074 211.742C66.9996 225.398 53.5199 268.577 126.405 288.255C199.291 307.934 171.758 404.26 154.207 443.757C140.383 474.867 388.436 644.748 430.193 654.654L432 655Z" fill="#FEA133"/>
<path d="M134 451.5C119.64 483.031 343.838 656.365 384.967 665.424L386.449 665.69C514.827 719.034 590.428 865.354 386.449 914C131.476 974.807 112.035 776.562 18.1165 903C-57.0186 1004.15 -29.1282 729.017 -3.12183 595.869L-17.4348 200.985C-35.0039 179.513 -25.2542 116.641 -21.9065 77.616L-23.0333 46.5267C-20.2592 50.4528 -20.5811 62.1656 -21.9065 77.616L-17.4348 200.985C-10.5127 209.445 0.650366 211.479 18.1166 203.095C52.3616 186.658 33.2007 281.766 108.346 301.498C183.491 321.231 152.179 411.584 134 451.5Z" fill="#FEAF52"/>
</g>
<defs>
<linearGradient id="paint0_linear_224_130" x1="360" y1="420" x2="0" y2="420" gradientUnits="userSpaceOnUse">
<stop stop-color="#FFA63C"/>
<stop offset="1" stop-color="#DF7A00"/>
</linearGradient>
<clipPath id="clip0_224_130">
<rect width="360" height="840" fill="white"/>
</clipPath>
</defs>
</svg>
